<svg xmlns="http://www.w3.org/2000/svg" viewBox="0 0 32.26 32.26"><style>.st9{fill:#fff}</style><g id="Content"><path class="st9" d="M15.31 13.25c-.38.71-.63 1.85-.75 3.42-.06 1.04.01 1.83.21 2.36.2.53.53.8.97.8.25 0 .49-.16.73-.48s.43-.76.58-1.32l.42-5.77c-.2-.05-.39-.08-.56-.08-.69 0-1.22.36-1.6 1.07z"/><path class="st9" d="M16.13 0C7.22 0 0 7.22 0 16.13s7.22 16.13 16.13 16.13 16.13-7.22 16.13-16.13S25.04 0 16.13 0zm7.46 18.93c-.39 1.02-.91 1.79-1.56 2.29s-1.4.76-2.25.76c-1.12 0-1.92-.52-2.4-1.57-.65 1.03-1.47 1.54-2.45 1.54-.99 0-1.75-.49-2.28-1.46s-.74-2.25-.61-3.81c.12-1.28.39-2.42.83-3.42s.98-1.78 1.65-2.33 1.39-.82 2.17-.82c.99 0 1.84.27 2.52.8l.62.48-.52 6.79c-.06.63-.01 1.11.12 1.43.14.32.39.48.76.48.56 0 1.03-.43 1.41-1.3s.58-1.96.61-3.26c.1-2.72-.35-4.81-1.35-6.28-1-1.47-2.48-2.2-4.44-2.2-1.87 0-3.39.83-4.54 2.5-1.16 1.67-1.79 3.92-1.89 6.76-.11 2.8.34 4.95 1.36 6.45 1.01 1.5 2.51 2.24 4.48 2.24.56 0 1.13-.07 1.73-.22.59-.15 1.11-.34 1.55-.58l.4 1.82c-.41.31-.96.57-1.64.76-.69.19-1.38.29-2.07.29-1.76 0-3.26-.42-4.49-1.25s-2.15-2.06-2.75-3.68c-.6-1.62-.87-3.56-.8-5.83.07-2.16.48-4.1 1.24-5.81s1.78-3.04 3.07-3.97c1.29-.93 2.76-1.4 4.4-1.4 1.64 0 3.05.42 4.25 1.25s2.1 2.04 2.7 3.61c.6 1.57.87 3.39.8 5.45-.03 1.3-.24 2.47-.63 3.49z"/></g></svg>