<svg xmlns="http://www.w3.org/2000/svg" viewBox="0 0 32.76 31.95"><style>.st9{fill:#fff}</style><g id="Content"><path d="M16.38 0C7.33 0 0 7.33 0 16.38c0 7.24 4.69 13.38 11.2 15.54.82.15 1.12-.36 1.12-.79 0-.39-.02-1.68-.02-3.05-4.56.99-5.52-1.93-5.52-1.93-.75-1.89-1.82-2.4-1.82-2.4-1.49-1.02.11-1 .11-1 1.64.12 2.51 1.69 2.51 1.69 1.46 2.5 3.83 1.78 4.77 1.36.15-1.06.57-1.78 1.04-2.19-3.64-.41-7.46-1.82-7.46-8.09 0-1.79.64-3.25 1.69-4.4-.17-.41-.73-2.08.16-4.33 0 0 1.38-.44 4.51 1.68 1.31-.36 2.71-.54 4.1-.55 1.39.01 2.79.19 4.1.55 3.13-2.12 4.5-1.68 4.5-1.68.89 2.26.33 3.92.16 4.33 1.05 1.15 1.69 2.61 1.69 4.4 0 6.29-3.83 7.68-7.48 8.08.59.51 1.11 1.51 1.11 3.03 0 2.19-.02 3.96-.02 4.49 0 .44.29.95 1.12.79 6.5-2.17 11.19-8.31 11.19-15.54C32.76 7.33 25.42 0 16.38 0z" fill-rule="evenodd" clip-rule="evenodd" fill="#fff"/><path class="st9" d="M6.2 23.52c-.04.08-.16.11-.28.05-.12-.05-.19-.16-.15-.25.04-.08.16-.11.28-.05.13.05.19.16.15.25zm-.2-.15M6.87 24.26c-.08.07-.23.04-.33-.08-.11-.11-.13-.27-.05-.34s.23-.04.34.08c.1.11.12.26.04.34zm-.16-.17M7.51 25.2c-.1.07-.26 0-.37-.14-.1-.15-.1-.32 0-.39s.26-.01.37.14c.11.14.11.32 0 .39zm0 0M8.4 26.11c-.09.1-.28.07-.42-.06-.14-.13-.18-.32-.09-.42.09-.1.28-.07.42.06.14.13.18.32.09.42zm0 0M9.62 26.64c-.04.13-.22.19-.41.13-.19-.06-.31-.21-.27-.34.04-.13.22-.19.41-.13.19.06.31.21.27.34zm0 0M10.96 26.74c0 .14-.15.25-.35.25-.2 0-.35-.1-.36-.24 0-.14.15-.25.35-.25.2 0 .36.1.36.24zm0 0M12.21 26.53c.02.13-.11.27-.31.3-.19.03-.37-.05-.39-.18-.02-.14.11-.27.3-.31.2-.03.37.05.4.19zm0 0"/></g></svg>