<svg xmlns="http://www.w3.org/2000/svg" viewBox="0 0 32.26 32.26"><style></style><path d="M16.13 0C7.22 0 0 7.22 0 16.13s7.22 16.13 16.13 16.13 16.13-7.22 16.13-16.13S25.04 0 16.13 0zm8.5 12.05c.01.18.01.37.01.56 0 5.69-4.33 12.26-12.26 12.26-2.43 0-4.7-.71-6.6-1.94.34.04.68.06 1.03.06 2.02 0 3.88-.69 5.35-1.84a4.301 4.301 0 0 1-4.02-2.99 4.278 4.278 0 0 0 1.95-.07c-1.97-.4-3.46-2.14-3.46-4.22v-.05c.58.32 1.24.52 1.95.54a4.296 4.296 0 0 1-1.92-3.59c0-.79.21-1.53.58-2.17a12.21 12.21 0 0 0 8.88 4.5c-.07-.32-.11-.64-.11-.98a4.31 4.31 0 0 1 7.45-2.95c.98-.19 1.9-.55 2.74-1.05a4.315 4.315 0 0 1-1.89 2.38c.87-.1 1.7-.34 2.47-.68a8.61 8.61 0 0 1-2.15 2.23z" fill="#fff" id="Content"/></svg>